# xmcd
#
# Track frame offsets: 
#        150
#        19092
#        31327
#        51132
#        68632
#        86095
#        101332
#        119560
#        135420
#        157400
#        178892
#
# Disc length: 2630 seconds
#
# Revision: 2
# Processed by: cddbd v1.5.2PL0 Copyright (c) Steve Scherf et al.
# Submitted via: ExactAudioCopyFreeDBPlugin 1.0
#
DISCID=940a440b
DTITLE=Big Mike Griffin - Sittin' Here With Nothing
DYEAR=1995
DGENRE=Blues
TTITLE0=Somebody's Been Talkin'
TTITLE1=Satisfied
TTITLE2=Love is Growing Cold
TTITLE3=Sittin' Here With Nothing
TTITLE4=The Last Thing I Need
TTITLE5=High Maintainence Woman
TTITLE6=Bad Seed
TTITLE7=I Am The Doctor
TTITLE8=He Can't Do It
TTITLE9=You Done Tore Your Playhouse Down
TTITLE10=Deliver Me From Evil
EXTD=
EXTT0=
EXTT1=
EXTT2=
EXTT3=
EXTT4=
EXTT5=
EXTT6=
EXTT7=
EXTT8=
EXTT9=
EXTT10=
PLAYORDER=
